<svg width="140" height="140" viewBox="0 0 140 140" fill="none" xmlns="http://www.w3.org/2000/svg">
<path d="M70 62.1053C81.0457 62.1053 90 52.6797 90 41.0526C90 29.4256 81.0457 20 70 20C58.9543 20 50 29.4256 50 41.0526C50 52.6797 58.9543 62.1053 70 62.1053Z" fill="#7B68EE"/>
<path d="M20 120C31.0457 120 40 110.574 40 98.9474C40 87.3203 31.0457 77.8947 20 77.8947C8.9543 77.8947 0 87.3203 0 98.9474C0 110.574 8.9543 120 20 120Z" fill="#00BFFF"/>
<path d="M120 120C131.046 120 140 110.574 140 98.9474C140 87.3203 131.046 77.8947 120 77.8947C108.954 77.8947 100 87.3203 100 98.9474C100 110.574 108.954 120 120 120Z" fill="#32CD32"/>
<path d="M70 62.1053L35 88.4211" stroke="black" stroke-width="2"/>
<path d="M70 62.1053L105 88.4211" stroke="black" stroke-width="2"/>
<path d="M35 98.9474H105" stroke="black" stroke-width="2"/>
</svg>
